<svg width="281" height="32" viewBox="0 0 281 32" fill="none" xmlns="http://www.w3.org/2000/svg">
<path d="M17.4463 9.84555V12.9223H7.3054C4.46004 12.9223 3.01274 14.3991 3.01274 17.3872V24.2791C3.01274 27.2722 4.46004 28.7884 7.3054 28.7884H17.4463V31.8208H6.72944C2.23002 31.8553 0 29.4973 0 24.8206V16.8999C0 12.2233 2.23002 9.84555 6.72944 9.84555H17.4463Z" fill="#19272E"/>
<path d="M24.9831 9.90463V24.3136C24.9831 27.3067 26.4254 28.8229 29.2364 28.8229H36.2365C39.0868 28.8229 40.5341 27.3067 40.5341 24.3136V9.90463H43.4878V24.8206C43.4878 29.4973 41.2184 31.8553 36.7584 31.8553H28.6998C24.2004 31.8553 21.9703 29.4973 21.9703 24.8206V9.90463H24.9831Z" fill="#19272E"/>
<path d="M52.5457 0V24.3185C52.5457 27.3066 53.9881 28.8229 56.799 28.8229H63.8829C66.7332 28.8229 68.1756 27.3066 68.1756 24.3185V17.4266C68.1756 14.4385 66.7332 12.9617 63.8829 12.9617H54.0373V9.87017H64.4884C68.9878 9.87017 71.2129 12.2282 71.2129 16.9048V24.8206C71.2129 29.4973 68.9878 31.8553 64.4884 31.8553H56.2624C51.763 31.8553 49.533 29.4973 49.533 24.8206V0H52.5457Z" fill="#19272E"/>
<path d="M79.749 24.3185C79.749 27.3067 81.2258 28.8229 84.1795 28.8229H90.5791C93.5328 28.8229 95.0342 27.3067 95.0342 24.3185V17.4266C95.0342 14.4385 93.5328 12.9617 90.5791 12.9617H84.1795C81.2258 12.9617 79.749 14.4385 79.749 17.4266V24.3185ZM91.1846 9.87018C95.812 9.87018 98.17 12.2282 98.17 16.9048V24.8206C98.17 29.4973 95.812 31.8553 91.1846 31.8553H83.6035C78.9368 31.8553 76.623 29.4973 76.623 24.8206V16.9048C76.623 12.2282 78.9368 9.87018 83.6035 9.87018H91.1846Z" fill="#19272E"/>
<path d="M121.701 9.87018V12.5236H108.385C106.524 12.5236 105.618 13.4047 105.618 15.1326V16.8605C105.618 18.4604 106.44 19.2628 108.178 19.2628H117.945C121.086 19.2628 122.651 20.779 122.651 23.7672V26.9719C122.651 30.216 120.962 31.8553 117.576 31.8553H102.886V29.2019H116.783C118.752 29.2019 119.737 28.3601 119.737 26.5928V24.1216C119.737 22.5217 118.91 21.7193 117.216 21.7193H107.435C104.294 21.7193 102.684 20.2031 102.684 17.21V14.7486C102.684 11.5439 104.338 9.90464 107.641 9.90464L121.701 9.87018Z" fill="#19272E"/>
<path d="M140.058 9.5748H143.341L135.549 31.8208H132.265L140.058 9.5748Z" fill="#E5007B"/>
<path d="M146.65 9.5748H149.933L142.14 31.8208H138.857L146.65 9.5748Z" fill="#E5007B"/>
<path d="M163.628 15.7529C164.682 16.6882 165.213 18.101 165.213 19.9914V27.223H161.767V25.6378C161.072 26.8193 159.78 27.41 157.893 27.41C157.022 27.4317 156.157 27.2637 155.358 26.9177C154.689 26.6271 154.119 26.1503 153.714 25.5443C153.335 24.958 153.138 24.273 153.148 23.5752C153.126 23.0373 153.237 22.5023 153.469 22.0167C153.702 21.5312 154.049 21.1097 154.482 20.7889C155.371 20.1128 156.745 19.7748 158.602 19.7748H161.531C161.553 19.4305 161.499 19.0855 161.372 18.7647C161.245 18.4438 161.049 18.155 160.798 17.9189C160.17 17.4402 159.389 17.2089 158.602 17.2691C157.925 17.2704 157.252 17.3784 156.608 17.5891C156.007 17.7743 155.443 18.0661 154.944 18.4506L153.62 15.876C154.379 15.3574 155.222 14.9743 156.111 14.7437C157.085 14.4773 158.09 14.3431 159.099 14.345C161.065 14.3351 162.575 14.8044 163.628 15.7529ZM160.483 24.4957C160.972 24.2035 161.34 23.746 161.521 23.206V21.9064H159.006C157.493 21.9064 156.736 22.3986 156.736 23.3832C156.73 23.6016 156.777 23.8183 156.874 24.014C156.971 24.2098 157.115 24.3786 157.293 24.5056C157.742 24.8027 158.276 24.9461 158.814 24.9142C159.398 24.9287 159.975 24.784 160.483 24.4957Z" fill="#19272E"/>
<path d="M170.23 26.583C169.175 26.0548 168.291 25.2385 167.681 24.2287C167.071 23.2189 166.76 22.057 166.784 20.8775C166.759 19.6985 167.07 18.5369 167.68 17.5277C168.29 16.5186 169.174 15.7034 170.23 15.1769C171.359 14.6052 172.611 14.318 173.877 14.3401C175.1 14.3105 176.31 14.5988 177.387 15.1769C178.364 15.707 179.133 16.5519 179.568 17.5743L176.728 19.1004C176.467 18.5667 176.059 18.1184 175.553 17.808C175.046 17.4976 174.462 17.338 173.868 17.3479C173.427 17.3356 172.989 17.4131 172.579 17.5756C172.17 17.738 171.797 17.9822 171.485 18.293C171.161 18.636 170.911 19.0409 170.748 19.4835C170.586 19.926 170.515 20.3969 170.54 20.8677C170.514 21.3385 170.585 21.8095 170.748 22.2521C170.91 22.6948 171.161 23.0997 171.485 23.4423C171.797 23.7541 172.169 23.9988 172.578 24.1614C172.988 24.3239 173.427 24.4009 173.868 24.3874C174.461 24.4024 175.047 24.246 175.554 23.937C176.061 23.6279 176.469 23.1793 176.728 22.6448L179.583 24.2053C179.132 25.2089 178.366 26.0383 177.402 26.5682C176.326 27.1517 175.116 27.4436 173.892 27.415C172.622 27.441 171.364 27.1553 170.23 26.583Z" fill="#19272E"/>
<path d="M190.881 15.7529C191.947 16.6751 192.481 18.0814 192.481 19.9717V27.223H189.035V25.6378C188.345 26.8193 187.066 27.41 185.165 27.41C184.293 27.4323 183.426 27.2643 182.625 26.9178C181.957 26.6271 181.386 26.1503 180.981 25.5443C180.605 24.957 180.408 24.2727 180.415 23.5752C180.395 23.0375 180.506 22.5029 180.738 22.0176C180.971 21.5322 181.318 21.1106 181.749 20.7889C182.638 20.1128 184.012 19.7748 185.869 19.7748H188.823C188.841 19.4251 188.782 19.0758 188.648 18.7521C188.514 18.4285 188.31 18.1388 188.05 17.9042C187.421 17.4259 186.638 17.1948 185.85 17.2543C185.181 17.2582 184.516 17.3662 183.88 17.5743C183.279 17.7606 182.716 18.0523 182.217 18.4358L180.892 15.8612C181.651 15.3435 182.494 14.9605 183.383 14.729C184.357 14.4625 185.362 14.3284 186.371 14.3302C188.324 14.3302 189.827 14.8044 190.881 15.7529ZM187.74 24.5154C188.229 24.2232 188.597 23.7658 188.779 23.2257V21.9064H186.253C184.74 21.9064 183.984 22.3987 183.984 23.3832C183.977 23.6016 184.024 23.8183 184.121 24.014C184.219 24.2098 184.362 24.3786 184.54 24.5056C184.991 24.8034 185.527 24.9468 186.066 24.9142C186.652 24.9306 187.231 24.7858 187.74 24.4958V24.5154Z" fill="#19272E"/>
<path d="M208.406 9.69788V27.223H204.886V25.7461C203.977 26.8488 202.654 27.4002 200.918 27.4002C199.786 27.4172 198.668 27.1407 197.674 26.5978C196.711 26.0691 195.919 25.2745 195.395 24.3087C194.828 23.2501 194.543 22.0634 194.568 20.8627C194.542 19.662 194.827 18.475 195.395 17.4168C195.917 16.4489 196.709 15.6536 197.674 15.1277C198.668 14.5847 199.786 14.3083 200.918 14.3253C201.626 14.2859 202.334 14.4026 202.991 14.6672C203.649 14.9318 204.24 15.3377 204.724 15.8563V9.69788H208.406ZM203.872 23.4324C204.186 23.0866 204.429 22.6818 204.586 22.2416C204.743 21.8014 204.812 21.3344 204.788 20.8677C204.811 20.4013 204.742 19.9348 204.584 19.4953C204.426 19.0559 204.182 18.6522 203.867 18.3078C203.249 17.6931 202.413 17.348 201.541 17.348C200.669 17.348 199.833 17.6931 199.215 18.3078C198.9 18.6522 198.656 19.0559 198.498 19.4953C198.34 19.9348 198.271 20.4013 198.294 20.8677C198.271 21.3348 198.34 21.802 198.498 22.2422C198.656 22.6824 198.9 23.0869 199.215 23.4324C199.834 24.0448 200.67 24.3883 201.541 24.3883C202.412 24.3883 203.248 24.0448 203.867 23.4324H203.872Z" fill="#19272E"/>
<path d="M223.238 21.9064H213.649C213.799 22.6655 214.24 23.3354 214.879 23.7721C215.589 24.2499 216.431 24.4912 217.286 24.4613C217.885 24.4717 218.481 24.3716 219.044 24.1659C219.579 23.9525 220.066 23.6345 220.476 23.2306L222.446 25.3572C221.248 26.7258 219.5 27.41 217.203 27.41C215.886 27.4377 214.581 27.1508 213.397 26.5732C212.344 26.0547 211.459 25.2471 210.847 24.2447C210.264 23.2176 209.957 22.0565 209.957 20.875C209.957 19.6936 210.264 18.5325 210.847 17.5054C211.425 16.5153 212.267 15.7056 213.279 15.1671C214.336 14.6231 215.506 14.3364 216.694 14.3304C217.882 14.3244 219.055 14.5993 220.117 15.1326C221.113 15.654 221.937 16.4524 222.49 17.4316C223.082 18.4961 223.379 19.6992 223.351 20.9169C223.307 20.9661 223.282 21.2959 223.238 21.9064ZM214.633 17.8254C214.054 18.3154 213.683 19.0068 213.594 19.76H219.851C219.755 19.0121 219.385 18.3265 218.813 17.8352C218.231 17.3492 217.492 17.0935 216.735 17.1165C215.972 17.0892 215.224 17.3413 214.633 17.8254Z" fill="#19272E"/>
<path d="M245.356 15.7529C246.291 16.6882 246.759 18.0961 246.759 19.9668V27.2229H243.077V20.5132C243.138 19.7117 242.917 18.9142 242.452 18.2586C242.23 18.0069 241.954 17.8092 241.644 17.6804C241.334 17.5516 241 17.4951 240.665 17.5152C240.282 17.4968 239.9 17.5621 239.546 17.7067C239.191 17.8512 238.873 18.0715 238.612 18.3521C238.059 19.0617 237.789 19.9509 237.854 20.8479V27.2229H234.172V20.5132C234.172 18.5146 233.369 17.5152 231.764 17.5152C231.385 17.4984 231.006 17.5645 230.655 17.7091C230.304 17.8536 229.989 18.0731 229.731 18.3521C229.18 19.0624 228.912 19.9515 228.978 20.8479V27.2229H225.291V14.5173H228.811V15.9941C229.287 15.4561 229.882 15.0365 230.548 14.7683C231.264 14.4781 232.031 14.3341 232.803 14.345C233.643 14.331 234.476 14.5113 235.235 14.8717C235.949 15.2181 236.554 15.7547 236.982 16.4224C237.503 15.7564 238.179 15.2289 238.952 14.8865C239.773 14.5187 240.665 14.3339 241.566 14.345C242.26 14.3109 242.954 14.4181 243.605 14.6601C244.257 14.9021 244.853 15.2739 245.356 15.7529Z" fill="#19272E"/>
<path d="M261.97 14.5173L256.231 28.0008C255.645 29.4776 254.926 30.4966 254.069 31.0972C253.153 31.7131 252.067 32.028 250.963 31.9981C250.295 31.9975 249.631 31.8946 248.994 31.6928C248.413 31.5204 247.873 31.2305 247.409 30.8412L248.758 28.2174C249.046 28.4742 249.38 28.6746 249.742 28.8081C250.092 28.948 250.464 29.0214 250.84 29.0247C251.279 29.0443 251.711 28.9141 252.066 28.6555C252.445 28.3256 252.737 27.9082 252.918 27.4396L252.967 27.3214L247.463 14.5222H251.263L254.837 23.1371L258.446 14.5173H261.97Z" fill="#19272E"/>
<path d="M270.753 9.5748H274.036L266.243 31.8208H262.96L270.753 9.5748Z" fill="#E5007B"/>
<path d="M277.344 9.5748H280.628L272.83 31.8208H269.552L277.344 9.5748Z" fill="#E5007B"/>
</svg>
