<svg width="374" height="91" viewBox="0 0 374 91" fill="none" xmlns="http://www.w3.org/2000/svg">
<path d="M206.701 67.7524C206.701 75.3342 200.571 81.4643 192.989 81.4643C185.407 81.4643 179.277 75.3342 179.277 67.7524C179.277 60.1705 185.407 54.0405 192.989 54.0405C200.571 54.0405 206.701 60.1705 206.701 67.7524Z" fill="#E4105D"/>
<path d="M248.962 46.0285L223.635 20.7019C219.979 17.0454 213.903 17.4218 210.73 21.7773C208.257 25.165 208.848 29.8969 211.806 32.9081L231.002 52.1048L211.806 71.2476C208.794 74.2588 208.257 79.0983 210.838 82.4859C212.558 84.7444 215.086 85.9273 217.667 85.9273C219.818 85.9273 222.022 85.1208 223.689 83.4538L249.016 58.1272C252.296 54.7396 252.296 49.3624 248.962 46.0285Z" fill="#E4105D"/>
<path d="M193.199 50.7071C200.921 50.7071 207.18 44.4477 207.18 36.7263C207.18 29.005 200.921 22.7456 193.199 22.7456C185.478 22.7456 179.219 29.005 179.219 36.7263C179.219 44.4477 185.478 50.7071 193.199 50.7071Z" fill="#E4105D"/>
<path d="M193.199 81.357C200.921 81.357 207.18 75.0976 207.18 67.3762C207.18 59.6549 200.921 53.3955 193.199 53.3955C185.478 53.3955 179.219 59.6549 179.219 67.3762C179.219 75.0976 185.478 81.357 193.199 81.357Z" fill="#E4105D"/>
<path d="M257.676 16.6152H265.096V28.6602L263.698 32.8006H265.526C266.709 29.6818 268.968 26.7244 274.721 26.7244C281.497 26.7244 284.831 32.2091 284.831 38.8231C284.831 45.437 281.443 50.9755 274.721 50.9755C268.968 50.9755 266.709 48.0181 265.526 44.8993H263.698L265.096 49.0398V50.4916H257.676V16.6152ZM271.28 44.5767C275.259 44.5767 277.464 42.8022 277.464 38.8768C277.464 34.9515 275.259 33.2308 271.28 33.2308C267.301 33.2308 265.096 34.9515 265.096 38.8768C265.096 42.8022 267.301 44.5767 271.28 44.5767Z" fill="#E4105D"/>
<path d="M296.448 26.7783C303.761 26.7783 309.568 30.7575 309.568 38.877C309.568 47.0504 303.761 51.0295 296.448 51.0295C289.081 51.0295 283.273 47.0504 283.273 38.877C283.273 30.7575 289.081 26.7783 296.448 26.7783ZM296.448 44.5769C299.889 44.5769 302.201 42.8024 302.201 38.877C302.201 35.0054 299.943 33.231 296.448 33.231C292.952 33.231 290.694 35.0054 290.694 38.877C290.64 42.8024 292.899 44.5769 296.448 44.5769Z" fill="#E4105D"/>
<path d="M321.127 26.7783C328.44 26.7783 334.248 30.7575 334.248 38.877C334.248 47.0504 328.44 51.0295 321.127 51.0295C313.761 51.0295 307.953 47.0504 307.953 38.877C307.953 30.7575 313.761 26.7783 321.127 26.7783ZM321.127 44.5769C324.569 44.5769 326.881 42.8024 326.881 38.877C326.881 35.0054 324.622 33.231 321.127 33.231C317.632 33.231 315.374 35.0054 315.374 38.877C315.32 42.8024 317.632 44.5769 321.127 44.5769Z" fill="#E4105D"/>
<path d="M347.26 44.0927V50.5453L337.527 51.0293C335 51.1368 333.602 49.6312 333.602 47.1039V33.7147V27.262V22.8527L341.022 20.5405V27.262H346.399V33.7147H341.022V44.5766L347.26 44.0927Z" fill="#E4105D"/>
<path d="M289.995 67.6448L297.362 66.6231C297.362 64.7411 295.856 63.5581 292.683 63.5581C289.726 63.5581 288.059 64.7949 288.059 66.9457H281.122C281.122 61.0308 286.177 57.5356 292.683 57.5356C299.136 57.5356 304.728 60.6544 304.728 68.29V74.8502H308.116V81.3029H303.008C300.803 81.3029 299.566 80.0661 299.566 77.8615V77.3775L300.695 74.5814H298.867C298.007 78.453 295.748 81.733 289.188 81.733C281.929 81.733 280.692 77.27 280.692 74.904C280.639 70.9786 283.058 68.6127 289.995 67.6448ZM290.586 75.3879C294.673 75.3879 297.362 73.6672 297.362 70.8173L291.393 71.6239C289.188 71.9465 288.059 72.2692 288.059 73.6135C288.005 74.9578 289.296 75.3879 290.586 75.3879Z" fill="#E4105D"/>
<path d="M345.968 69.2043V81.3568H338.548V69.6882C338.548 65.2252 337.795 63.9884 335.106 63.9884C331.073 63.9884 330.159 67.4836 330.159 73.1296V81.303H322.739V69.6345C322.739 65.1714 321.986 63.9346 319.297 63.9346C315.264 63.9346 314.35 67.4298 314.35 73.0759V81.2492H306.93V57.9122H314.35V60.2781L312.952 64.4186H314.78C315.695 60.2781 317.845 57.4282 322.362 57.4282C326.772 57.4282 328.6 60.3319 329.299 64.4186H330.643C331.557 60.2781 333.654 57.4282 338.171 57.4282C344.14 57.5895 345.968 62.913 345.968 69.2043Z" fill="#E4105D"/>
<path d="M353.928 58.0196V59.4714L352.53 63.6119H354.359C355.541 60.4931 357.8 57.5356 363.554 57.5356C370.329 57.5356 373.663 63.0742 373.663 69.6881C373.663 76.3021 370.275 81.7868 363.554 81.7868C357.8 81.7868 355.541 78.8294 354.359 75.7106H352.53L353.928 79.851V90.0677H346.508V57.912H353.928V58.0196ZM360.112 75.3879C364.091 75.3879 366.296 73.721 366.296 69.7419C366.296 65.7628 364.091 64.0421 360.112 64.0421C356.133 64.0421 353.928 65.7628 353.928 69.7419C353.928 73.721 356.133 75.3879 360.112 75.3879Z" fill="#E4105D"/>
<path d="M269.721 57.5894C262.3 57.5894 256.977 61.9449 256.977 69.6881C256.977 77.485 262.3 81.8405 269.721 81.8405C276.119 81.8405 281.927 78.3991 282.249 71.7314H274.829C274.56 73.8285 272.678 75.3879 269.721 75.3879C266.225 75.3879 264.343 73.2908 264.343 69.6881C264.343 66.1391 266.172 64.042 269.721 64.042C272.302 64.042 274.076 65.2788 274.668 66.9457H282.196C281.497 60.7619 275.851 57.5894 269.721 57.5894Z" fill="#E4105D"/>
<path d="M164.864 74.8504C173.253 68.2903 178.63 58.1274 178.63 46.6739C178.63 35.2205 173.253 25.0038 164.864 18.4974C158.788 13.7654 151.153 10.9155 142.872 10.9155C123.137 10.9155 107.113 26.9396 107.113 46.6739C107.113 66.4082 123.137 82.4323 142.872 82.4323C151.153 82.4323 158.788 79.6362 164.864 74.8504Z" fill="white"/>
<path d="M71.463 44.2544V0C61.5689 0 52.9117 5.21588 48.0722 13.0666C44.2544 11.6685 40.1139 10.8619 35.7584 10.8619C16.0241 10.8619 0 26.886 0 46.6741C0 66.4084 16.0241 82.4325 35.7584 82.4325C44.0393 82.4325 51.6749 79.5826 57.7511 74.8506C66.1396 68.2905 71.5168 58.1275 71.5168 46.6741C71.5705 45.8675 71.5168 45.0609 71.463 44.2544Z" fill="white"/>
<path d="M89.0457 27.5312C81.5176 27.5312 75.4414 33.6075 75.4414 41.1356V82.3787C90.6051 82.3787 102.865 70.0649 102.865 54.955V41.3507C102.865 33.7688 96.6814 27.5312 89.0457 27.5312Z" fill="white"/>
<path d="M89.1533 27.4237C96.7261 27.4237 102.865 21.2847 102.865 13.7119C102.865 6.13901 96.7261 0 89.1533 0C81.5804 0 75.4414 6.13901 75.4414 13.7119C75.4414 21.2847 81.5804 27.4237 89.1533 27.4237Z" fill="white"/>
</svg>
