<svg width="109" height="60" viewBox="0 0 109 60" fill="none" xmlns="http://www.w3.org/2000/svg">
<path d="M45.4017 45.9371H37.0171V14.0934H39.0686L41.8338 17.8397C43.1717 16.6801 44.6881 15.6989 46.4721 15.0746C48.1668 14.4502 49.9508 14.0934 51.8239 14.0934H59.2274V22.2104H51.8239C50.932 22.2104 50.1292 22.3888 49.3264 22.6564C48.5236 23.0132 47.8992 23.37 47.2749 23.9944C46.7397 24.5296 46.2937 25.2431 45.9369 25.9567C45.5801 26.6703 45.4909 27.4731 45.4909 28.3651V45.9371H45.4017Z" fill="#5A2673"/>
<path d="M95.1742 29.7029C95.1742 32.2004 94.7282 34.5196 93.8363 36.5711C92.9443 38.6227 91.7847 40.4067 90.2683 41.923C88.752 43.4394 86.968 44.5098 84.9165 45.4018C82.8649 46.2045 80.7241 46.6505 78.405 46.6505C76.0858 46.6505 73.9451 46.2045 71.8935 45.4018C69.842 44.599 68.058 43.4394 66.5416 41.923C65.0253 40.4067 63.7765 38.6227 62.9737 36.5711C62.0817 34.5196 61.6357 32.2896 61.6357 29.7921V1.42712H70.0204V16.3232C70.4664 15.788 71.0015 15.2528 71.6259 14.8068C72.2503 14.3608 72.9639 14.004 73.6775 13.7365C74.3911 13.4689 75.1939 13.2013 75.9967 13.1121C76.7994 12.9337 77.6022 12.8445 78.3158 12.8445C80.6349 12.8445 82.8649 13.2905 84.8272 14.0932C86.8788 14.896 88.6627 16.1448 90.1791 17.6612C91.6955 19.1775 92.8551 20.9615 93.747 23.013C94.7282 25.0646 95.1742 27.2946 95.1742 29.7029ZM86.7896 29.7029C86.7896 28.4541 86.6112 27.2946 86.1652 26.2242C85.7192 25.1538 85.0948 24.2618 84.3812 23.459C83.6677 22.6563 82.7757 22.1211 81.7053 21.6751C80.7241 21.2291 79.6538 21.0507 78.4942 21.0507C77.3346 21.0507 76.2642 21.3183 75.283 21.7643C74.3019 22.2103 73.4099 22.9238 72.6071 23.7266C71.8935 24.5294 71.2691 25.4214 70.8231 26.4918C70.3771 27.5621 70.1988 28.6325 70.1988 29.7029C70.1988 30.9517 70.3771 32.1112 70.8231 33.0924C71.2691 34.1628 71.8043 35.0548 72.6071 35.8576C73.3207 36.6603 74.2127 37.2847 75.283 37.7307C76.2642 38.1767 77.3346 38.3551 78.4942 38.3551C79.6538 38.3551 80.7241 38.0875 81.7053 37.7307C82.6865 37.2847 83.5785 36.6603 84.3812 35.8576C85.0948 35.0548 85.7192 34.1628 86.1652 33.0924C86.522 32.1112 86.7896 30.9517 86.7896 29.7029Z" fill="#5A2673"/>
<path d="M109 5.44108C109 6.15466 108.822 6.86825 108.554 7.58183C108.286 8.20622 107.84 8.8306 107.305 9.2766C106.77 9.72258 106.235 10.1686 105.521 10.4362C104.808 10.7038 104.094 10.8822 103.291 10.8822C102.489 10.8822 101.775 10.7038 101.061 10.4362C100.348 10.1686 99.8126 9.72258 99.2774 9.2766C98.7422 8.8306 98.3855 8.20622 98.1179 7.58183C97.8503 6.95745 97.6719 6.24386 97.6719 5.44108C97.6719 4.7275 97.8503 4.01391 98.1179 3.30033C98.3855 2.67594 98.8314 2.05155 99.2774 1.60556C99.8126 1.15957 100.348 0.713584 101.061 0.44599C101.775 0.178396 102.489 0 103.291 0C104.094 0 104.808 0.178396 105.521 0.44599C106.235 0.713584 106.77 1.15957 107.305 1.60556C107.84 2.05155 108.197 2.67594 108.554 3.30033C108.822 4.01391 109 4.7275 109 5.44108ZM107.484 45.937H99.099V14.0933H107.484V45.937Z" fill="#5A2673"/>
<path d="M32.2005 22.8347C31.3085 20.7831 30.1489 18.9992 28.6325 17.4828C27.1162 15.9665 25.3322 14.8961 23.2807 14.0933C21.2291 13.2905 19.0884 12.8445 16.7692 12.8445C16.3232 12.8445 15.8772 12.8445 15.4312 12.9337L24.4402 10.7038L22.7455 4.01392L8.47381 7.58184L10.1685 14.1825C8.20619 15.0745 6.42226 16.234 4.90589 17.6612C3.38953 19.1776 2.14075 20.9615 1.33797 23.0131C0.44599 25.0647 0 27.2946 0 29.7029C0 32.1113 0.44599 34.3412 1.33797 36.3928C2.22995 38.4444 3.38953 40.2283 4.90589 41.7447C6.42226 43.2611 8.20622 44.4206 10.2578 45.3126C12.3093 46.2046 14.4501 46.6506 16.7692 46.6506C19.0884 46.6506 21.3183 46.2046 23.2807 45.3126C25.3322 44.4206 27.1162 43.2611 28.6325 41.7447C30.1489 40.2283 31.3085 38.4444 32.2005 36.3928C33.0924 34.3412 33.5384 32.1113 33.5384 29.7029C33.4492 27.2054 33.0033 24.8863 32.2005 22.8347ZM24.4402 33.2709C23.9942 34.3412 23.3699 35.2332 22.6563 36.036C21.9427 36.7496 21.0507 37.374 19.9803 37.82C18.9991 38.266 17.9288 38.4444 16.7692 38.4444C15.6096 38.4444 14.5393 38.266 13.5581 37.82C12.5769 37.374 11.685 36.7496 10.8822 35.9468C10.1686 35.144 9.5442 34.252 9.09821 33.1817C8.65222 32.1113 8.47381 30.9517 8.47381 29.7921C8.47381 28.4542 8.65222 27.2946 9.09821 26.2242C9.5442 25.1538 10.0794 24.2619 10.8822 23.4591C11.5958 22.6563 12.4877 22.1211 13.5581 21.6751C14.5393 21.2291 15.6096 21.0507 16.7692 21.0507C17.9288 21.0507 18.9991 21.2291 19.9803 21.6751C20.9615 22.1211 21.8535 22.6563 22.6563 23.4591C23.3699 24.2619 23.9942 25.1538 24.4402 26.2242C24.8862 27.2946 25.0646 28.4542 25.0646 29.7921C25.0646 31.0409 24.797 32.2005 24.4402 33.2709Z" fill="#5A2673"/>
<path d="M67.8798 57.8002H67.6122L67.1662 57.1758C67.077 57.265 66.8986 57.3542 66.8094 57.4434C66.7202 57.5326 66.5418 57.6218 66.4526 57.711C66.2742 57.8002 66.185 57.8002 66.0066 57.8894C65.8282 57.8894 65.739 57.9786 65.5606 57.9786C65.2038 57.9786 64.9363 57.8894 64.6687 57.8002C64.4011 57.711 64.1335 57.5326 63.9551 57.3542C63.7767 57.1758 63.5983 56.9082 63.4199 56.6406C63.2415 56.373 63.2415 56.0162 63.2415 55.6594C63.2415 55.3026 63.3307 54.9458 63.4199 54.6782C63.5091 54.4106 63.6875 54.143 63.9551 53.8755C64.1335 53.6971 64.4011 53.5187 64.6687 53.3403C64.9363 53.2511 65.293 53.1619 65.5606 53.1619C65.739 53.1619 65.8282 53.1619 66.0066 53.2511C66.185 53.3403 66.2742 53.3403 66.4526 53.4295C66.631 53.5187 66.7202 53.6079 66.8094 53.6971C66.8986 53.7863 67.077 53.8755 67.1662 53.9646L67.6122 53.4295H67.8798V57.8002ZM66.7202 55.5702C66.7202 55.3918 66.7202 55.3026 66.631 55.1242C66.5418 54.9458 66.4526 54.8566 66.3634 54.7674C66.2742 54.6782 66.0958 54.589 66.0066 54.4998C65.8282 54.4106 65.739 54.4106 65.5606 54.4106C65.3822 54.4106 65.293 54.4106 65.1146 54.4998C64.9363 54.589 64.847 54.589 64.7578 54.7674C64.6686 54.8566 64.5794 55.035 64.4902 55.1242C64.4011 55.3026 64.4011 55.481 64.4011 55.6594C64.4011 55.8378 64.4011 56.0162 64.4902 56.1946C64.5794 56.373 64.6686 56.4622 64.7578 56.5514C64.847 56.6406 65.0254 56.7298 65.1146 56.819C65.293 56.9082 65.3822 56.9082 65.5606 56.9082C65.739 56.9082 65.8282 56.9082 66.0066 56.819C66.185 56.7298 66.2742 56.6406 66.3634 56.5514C66.4526 56.4622 66.5418 56.2838 66.631 56.1946C66.7202 55.8378 66.7202 55.6594 66.7202 55.5702Z" fill="#5A2673"/>
<path d="M74.2128 54.2322L73.41 55.1242C73.41 55.035 73.3208 54.8566 73.2316 54.7674C73.1424 54.6782 73.0532 54.589 72.964 54.4998C72.8748 54.4106 72.7856 54.4106 72.6964 54.3214C72.6073 54.3214 72.518 54.2322 72.3396 54.2322C72.1612 54.2322 72.072 54.2322 71.8936 54.3214C71.7152 54.4106 71.6261 54.4998 71.5369 54.589C71.4477 54.6782 71.3584 54.8566 71.2692 55.035C71.18 55.2134 71.1801 55.3918 71.1801 55.5702C71.1801 55.7486 71.18 55.8378 71.2692 56.0162C71.3584 56.1946 71.4477 56.2838 71.5369 56.373C71.6261 56.4622 71.8044 56.5514 71.8936 56.6406C72.072 56.7298 72.1612 56.7298 72.3396 56.7298C72.4288 56.7298 72.5181 56.7298 72.6964 56.6406C72.7856 56.6406 72.8748 56.5514 72.964 56.5514C73.0532 56.4622 73.1424 56.4622 73.2316 56.373C73.3208 56.2838 73.3208 56.1946 73.41 56.1054L74.2128 56.9974C74.1236 57.1758 73.9452 57.265 73.856 57.4434C73.6776 57.5326 73.5884 57.711 73.41 57.711C73.2316 57.8002 73.0533 57.8894 72.8749 57.8894C72.6965 57.8894 72.518 57.9786 72.3396 57.9786C71.9828 57.9786 71.7152 57.8894 71.4477 57.8002C71.1801 57.711 70.9125 57.5326 70.7341 57.265C70.5557 57.0866 70.3773 56.819 70.1989 56.5514C70.0205 56.2838 70.0205 56.0162 70.0205 55.6594C70.0205 55.3026 70.1097 54.9458 70.1989 54.6782C70.2881 54.4106 70.4665 54.143 70.7341 53.8755C70.9125 53.6079 71.1801 53.5187 71.4477 53.3403C71.7152 53.2511 72.072 53.1619 72.3396 53.1619C72.518 53.1619 72.6965 53.1619 72.8749 53.2511C73.0533 53.3403 73.2316 53.3403 73.41 53.4295C73.5884 53.5187 73.7668 53.6079 73.856 53.7862C73.9452 53.8754 74.1236 54.0538 74.2128 54.2322Z" fill="#5A2673"/>
<path d="M80.5458 57.8002H80.2782L79.8322 57.1758C79.743 57.265 79.5646 57.3542 79.4754 57.4434C79.3862 57.5326 79.2078 57.6218 79.1186 57.711C78.9402 57.8002 78.851 57.8002 78.6726 57.8894C78.4942 57.8894 78.405 57.9786 78.2267 57.9786C77.8699 57.9786 77.6023 57.8894 77.3347 57.8002C77.0671 57.711 76.7994 57.5326 76.621 57.3542C76.4426 57.1758 76.2643 56.9082 76.0859 56.6406C75.9075 56.373 75.9075 56.0162 75.9075 55.6594C75.9075 55.3026 75.9967 54.9458 76.0859 54.6782C76.1751 54.4106 76.3534 54.143 76.621 53.8755C76.7994 53.6971 77.0671 53.5187 77.3347 53.3403C77.6023 53.2511 77.9591 53.1619 78.2267 53.1619C78.405 53.1619 78.4942 53.1619 78.6726 53.2511C78.851 53.3403 78.9402 53.3403 79.1186 53.4295C79.297 53.5187 79.3862 53.6079 79.4754 53.6971C79.5646 53.7863 79.743 53.8755 79.8322 53.9646L80.2782 53.4295H80.5458V57.8002ZM79.3862 55.5702C79.3862 55.3918 79.3862 55.3026 79.297 55.1242C79.2078 54.9458 79.1186 54.8566 79.0294 54.7674C78.9402 54.6782 78.7618 54.589 78.6726 54.4998C78.4942 54.4106 78.405 54.4106 78.2267 54.4106C78.0483 54.4106 77.9591 54.4106 77.7807 54.4998C77.6023 54.589 77.513 54.589 77.4238 54.7674C77.3347 54.8566 77.2455 55.035 77.1563 55.1242C77.0671 55.3026 77.067 55.481 77.067 55.6594C77.067 55.8378 77.0671 56.0162 77.1563 56.1946C77.2455 56.373 77.3347 56.4622 77.4238 56.5514C77.513 56.6406 77.6915 56.7298 77.7807 56.819C77.9591 56.9082 78.0483 56.9082 78.2267 56.9082C78.405 56.9082 78.4942 56.9082 78.6726 56.819C78.851 56.7298 78.9402 56.6406 79.0294 56.5514C79.1186 56.4622 79.2078 56.2838 79.297 56.1946C79.3862 55.8378 79.3862 55.6594 79.3862 55.5702Z" fill="#5A2673"/>
<path d="M87.2357 57.8003H86.9681L86.5221 57.176C86.4329 57.2652 86.2545 57.3544 86.1653 57.4436C86.0761 57.5328 85.8978 57.6219 85.8086 57.7111C85.6302 57.8003 85.541 57.8003 85.3626 57.8895C85.1842 57.8895 85.095 57.9787 84.9166 57.9787C84.5598 57.9787 84.2922 57.8895 84.0246 57.8003C83.757 57.7111 83.4894 57.5328 83.311 57.2652C83.1326 57.0868 82.9542 56.8192 82.7758 56.5516C82.6866 56.284 82.5974 55.9272 82.5974 55.5704C82.5974 55.2136 82.6866 54.946 82.7758 54.5892C82.865 54.3216 83.0434 54.054 83.311 53.7864C83.4894 53.608 83.757 53.4296 84.0246 53.2512C84.2922 53.0728 84.649 53.0729 84.9166 53.0729C85.0058 53.0729 85.095 53.0729 85.2734 53.0729C85.3626 53.0729 85.4518 53.0729 85.6302 53.162C85.7194 53.162 85.8086 53.2512 85.8978 53.3404C85.9869 53.4296 86.0761 53.5188 86.1653 53.608V51.4673H87.3249V57.8003H87.2357ZM86.0762 55.5704C86.0762 55.392 86.0761 55.3028 85.9869 55.1244C85.8977 54.946 85.8085 54.8568 85.7193 54.7676C85.6301 54.6784 85.4518 54.5892 85.3626 54.5C85.1842 54.4108 85.095 54.4108 84.9166 54.4108C84.7382 54.4108 84.649 54.4108 84.4706 54.5C84.2922 54.5892 84.203 54.6784 84.1138 54.7676C84.0246 54.8568 83.9354 55.0352 83.8462 55.1244C83.757 55.3028 83.757 55.4812 83.757 55.6596C83.757 55.838 83.757 56.0164 83.8462 56.1056C83.9354 56.284 84.0246 56.3732 84.1138 56.4624C84.203 56.5516 84.3814 56.6408 84.4706 56.73C84.649 56.8192 84.7382 56.8192 84.9166 56.8192C85.095 56.8192 85.1842 56.8192 85.3626 56.73C85.541 56.6408 85.6301 56.5516 85.7193 56.4624C85.8085 56.3732 85.8977 56.1948 85.9869 56.1056C86.0761 55.838 86.0762 55.6596 86.0762 55.5704Z" fill="#5A2673"/>
<path d="M91.4279 56.7299C91.5171 56.7299 91.5172 56.7299 91.6064 56.7299C91.6955 56.7299 91.6955 56.7299 91.7847 56.7299C91.8739 56.7299 91.9631 56.7299 92.1415 56.6407C92.2307 56.6407 92.3199 56.5516 92.4091 56.5516C92.4983 56.4624 92.5875 56.4623 92.6767 56.3732C92.7659 56.284 92.7659 56.1948 92.8551 56.1056L93.6579 56.9975C93.5687 57.1759 93.3903 57.2651 93.3011 57.4435C93.1227 57.5327 93.0335 57.7111 92.8551 57.7111C92.6767 57.8003 92.4983 57.8895 92.3199 57.8895C92.1415 57.8895 91.9631 57.9787 91.7847 57.9787C91.4279 57.9787 91.1603 57.8895 90.8927 57.8003C90.6251 57.7111 90.3575 57.5327 90.1791 57.2651C90.0008 57.0867 89.8224 56.8191 89.644 56.5516C89.5548 56.284 89.4656 55.9272 89.4656 55.5704C89.4656 55.2136 89.5548 54.8568 89.644 54.5892C89.7332 54.3216 89.9116 54.054 90.1791 53.8756C90.3575 53.6972 90.6251 53.5188 90.8927 53.4296C91.1603 53.3404 91.5171 53.2512 91.7847 53.2512C91.9631 53.2512 92.1415 53.2512 92.3199 53.3404C92.4983 53.4296 92.6767 53.4296 92.8551 53.5188C93.0335 53.608 93.2119 53.6972 93.3011 53.7864C93.4795 53.8756 93.5687 54.054 93.6579 54.2324L91.4279 56.7299ZM91.9631 54.3216C91.8739 54.3216 91.8739 54.3216 91.7847 54.3216C91.6955 54.3216 91.6955 54.3216 91.6064 54.3216C91.428 54.3216 91.3388 54.3216 91.1604 54.4108C90.982 54.5 90.8927 54.5892 90.8035 54.6784C90.7143 54.7676 90.6252 54.946 90.536 55.0352C90.4468 55.2136 90.4467 55.392 90.4467 55.5704C90.4467 55.5704 90.4467 55.6596 90.4467 55.7488C90.4467 55.838 90.4467 55.838 90.4467 55.9272C90.4467 56.0164 90.4467 56.0164 90.4467 56.1056C90.4467 56.1948 90.4468 56.1948 90.536 56.284L91.9631 54.3216Z" fill="#5A2673"/>
<path d="M101.329 57.8002H100.169V54.9458C100.169 54.8566 100.169 54.7674 100.169 54.6782C100.169 54.589 100.08 54.589 100.08 54.4998C99.9911 54.4106 99.991 54.4106 99.9019 54.4106C99.8127 54.4106 99.7235 54.4106 99.6343 54.4106C99.5451 54.4106 99.4559 54.4106 99.4559 54.4106C99.3667 54.4106 99.3667 54.4998 99.2775 54.4998C99.1883 54.589 99.1883 54.589 99.1883 54.6782C99.1883 54.7674 99.1883 54.8566 99.1883 54.9458V57.8002H98.0287V54.9458C98.0287 54.8566 98.0287 54.7674 98.0287 54.6782C98.0287 54.589 97.9395 54.589 97.9395 54.4998C97.8503 54.4106 97.8503 54.4106 97.7611 54.4106C97.6719 54.4106 97.5827 54.4106 97.4935 54.4106C97.4043 54.4106 97.3151 54.4106 97.3151 54.4106C97.2259 54.4106 97.2259 54.4998 97.1367 54.4998C97.0475 54.589 97.0475 54.589 97.0475 54.6782C97.0475 54.7674 97.0475 54.8566 97.0475 54.9458V57.8002H95.8879V53.2511H96.1555L96.5123 53.6079C96.6907 53.4295 96.8691 53.3403 97.0475 53.2511C97.2259 53.1619 97.4043 53.1619 97.6719 53.1619C97.8503 53.1619 98.1179 53.1619 98.2963 53.2511C98.4747 53.3403 98.6531 53.4295 98.8315 53.6971C98.9207 53.6079 99.0098 53.5187 99.099 53.4295C99.1882 53.3403 99.2774 53.3403 99.3666 53.2511C99.4558 53.2511 99.5451 53.1619 99.6343 53.1619C99.7235 53.1619 99.8126 53.1619 99.991 53.1619C100.259 53.1619 100.437 53.2511 100.705 53.3403C100.883 53.4295 101.061 53.5187 101.24 53.6971C101.418 53.8754 101.507 54.0538 101.597 54.2322C101.686 54.4106 101.775 54.6782 101.775 54.9458V57.8002H101.329Z" fill="#5A2673"/>
<path d="M104.808 59.5843V58.4247H105.432C105.521 58.4247 105.61 58.4247 105.789 58.3355C105.878 58.3355 105.967 58.2463 106.056 58.1571C106.146 58.0679 106.235 57.9787 106.324 57.8895C106.413 57.8003 106.413 57.7111 106.502 57.6219C106.413 57.7111 106.235 57.7111 106.146 57.8003C106.056 57.8895 105.878 57.8895 105.789 57.8895C105.521 57.8895 105.254 57.8003 104.986 57.7111C104.719 57.6219 104.54 57.4435 104.362 57.2651C104.183 57.0867 104.005 56.8191 103.916 56.6407C103.827 56.3732 103.737 56.1056 103.737 55.7488V53.2512H104.897V55.7488C104.897 55.9272 104.897 56.0164 104.986 56.1948C105.075 56.284 105.075 56.3732 105.164 56.4623C105.254 56.5515 105.343 56.6407 105.432 56.6407C105.521 56.6407 105.61 56.7299 105.789 56.7299C105.878 56.7299 106.056 56.7299 106.146 56.6407C106.235 56.5516 106.324 56.5515 106.413 56.4623C106.502 56.3732 106.592 56.284 106.592 56.1948C106.681 56.1056 106.681 55.9272 106.681 55.838V53.3404H107.84V57.2651C107.84 57.6219 107.751 57.8895 107.662 58.1571C107.573 58.4247 107.394 58.6923 107.127 58.8707C106.948 59.0491 106.681 59.2275 106.413 59.4059C106.146 59.5843 105.878 59.5843 105.521 59.5843H104.808Z" fill="#5A2673"/>
</svg>
